<svg width="38" height="52" xmlns="http://www.w3.org/2000/svg"><g fill="#333" fill-rule="evenodd" opacity=".2"><path d="M36.757 6.868l-5.563-5.614-.656-.662A2 2 0 0 0 29.117 0H2a2 2 0 0 0-2 2v48a2 2 0 0 0 2 2h34a2 2 0 0 0 2-2V8.946a2 2 0 0 0-.58-1.408l-.663-.67zM30.315 2.14l5.563 5.614h-5.563V2.141zM1.243 50.746V1.254h27.829V7.01a2 2 0 0 0 2 2h5.685v41.736H1.243z" fill-rule="nonzero"/><text font-family="ProximaNova-Regular, Proxima Nova" font-size="14"><tspan x="10" y="31">A3</tspan></text></g></svg>