<svg width="106" height="136" xmlns="http://www.w3.org/2000/svg"><g fill="none"><rect fill="#F7F7F7" width="106" height="136" rx="3"/><g transform="translate(10 17)" stroke="#CFCFCF"><circle cx="6" cy="6" r="6"/><circle cx="6" cy="24" r="6"/><circle cx="6" cy="42" r="6"/><circle cx="6" cy="60" r="6"/><circle cx="6" cy="78" r="6"/><circle cx="6" cy="96" r="6"/><circle cx="24" cy="6" r="6"/><circle cx="24" cy="24" r="6"/><circle cx="24" cy="42" r="6"/><circle cx="24" cy="60" r="6"/><circle cx="24" cy="78" r="6"/><circle cx="24" cy="96" r="6"/><circle cx="42" cy="6" r="6"/><circle cx="61" cy="6" r="6"/><circle cx="80" cy="6" r="6"/><circle cx="42" cy="24" r="6"/><circle cx="61" cy="24" r="6"/><circle cx="80" cy="24" r="6"/><circle cx="42" cy="42" r="6"/><circle cx="61" cy="42" r="6"/><circle cx="80" cy="42" r="6"/><circle cx="42" cy="60" r="6"/><circle cx="42" cy="78" r="6"/><circle cx="42" cy="96" r="6"/><circle cx="61" cy="60" r="6"/><circle cx="80" cy="60" r="6"/><circle cx="61" cy="78" r="6"/><circle cx="61" cy="96" r="6"/><circle cx="80" cy="78" r="6"/><circle cx="80" cy="96" r="6"/></g></g></svg>