<svg width="308" height="436" xmlns="http://www.w3.org/2000/svg"><g fill="none"><rect fill="#F7F7F7" width="308" height="436" rx="3"/><path d="M88.5 142C58.953 142 35 118.047 35 88.5S58.953 35 88.5 35 142 58.953 142 88.5 118.047 142 88.5 142zm0 129C58.953 271 35 247.047 35 217.5S58.953 164 88.5 164s53.5 23.953 53.5 53.5S118.047 271 88.5 271zm0 130C58.953 401 35 377.047 35 347.5S58.953 294 88.5 294s53.5 23.953 53.5 53.5S118.047 401 88.5 401zm131-259c-29.547 0-53.5-23.953-53.5-53.5S189.953 35 219.5 35 273 58.953 273 88.5 249.047 142 219.5 142zm0 129c-29.547 0-53.5-23.953-53.5-53.5s23.953-53.5 53.5-53.5 53.5 23.953 53.5 53.5-23.953 53.5-53.5 53.5zm0 130c-29.547 0-53.5-23.953-53.5-53.5s23.953-53.5 53.5-53.5 53.5 23.953 53.5 53.5-23.953 53.5-53.5 53.5z" stroke="#CFCFCF"/></g></svg>