<svg width="106" height="136" xmlns="http://www.w3.org/2000/svg"><g fill="none"><rect fill="#F7F7F7" width="106" height="136" rx="3"/><path d="M25.5 31c-5.247 0-9.5-4.03-9.5-9s4.253-9 9.5-9 9.5 4.03 9.5 9-4.253 9-9.5 9zm0 23c-5.247 0-9.5-4.03-9.5-9s4.253-9 9.5-9 9.5 4.03 9.5 9-4.253 9-9.5 9zm0 23c-5.247 0-9.5-4.03-9.5-9s4.253-9 9.5-9 9.5 4.03 9.5 9-4.253 9-9.5 9zm0 23c-5.247 0-9.5-4.03-9.5-9s4.253-9 9.5-9 9.5 4.03 9.5 9-4.253 9-9.5 9zm0 23c-5.247 0-9.5-4.03-9.5-9s4.253-9 9.5-9 9.5 4.03 9.5 9-4.253 9-9.5 9zm28-92c-5.247 0-9.5-4.03-9.5-9s4.253-9 9.5-9 9.5 4.03 9.5 9-4.253 9-9.5 9zm0 23c-5.247 0-9.5-4.03-9.5-9s4.253-9 9.5-9 9.5 4.03 9.5 9-4.253 9-9.5 9zm0 23c-5.247 0-9.5-4.03-9.5-9s4.253-9 9.5-9 9.5 4.03 9.5 9-4.253 9-9.5 9zm0 23c-5.247 0-9.5-4.03-9.5-9s4.253-9 9.5-9 9.5 4.03 9.5 9-4.253 9-9.5 9zm0 23c-5.247 0-9.5-4.03-9.5-9s4.253-9 9.5-9 9.5 4.03 9.5 9-4.253 9-9.5 9zm27-92c-5.247 0-9.5-4.03-9.5-9s4.253-9 9.5-9 9.5 4.03 9.5 9-4.253 9-9.5 9zm0 23c-5.247 0-9.5-4.03-9.5-9s4.253-9 9.5-9 9.5 4.03 9.5 9-4.253 9-9.5 9zm0 23c-5.247 0-9.5-4.03-9.5-9s4.253-9 9.5-9 9.5 4.03 9.5 9-4.253 9-9.5 9zm0 23c-5.247 0-9.5-4.03-9.5-9s4.253-9 9.5-9 9.5 4.03 9.5 9-4.253 9-9.5 9zm0 23c-5.247 0-9.5-4.03-9.5-9s4.253-9 9.5-9 9.5 4.03 9.5 9-4.253 9-9.5 9z" stroke="#CFCFCF"/></g></svg>